<svg xmlns="http://www.w3.org/2000/svg" viewBox="0 0 636 300"><title>swimlane-chat-app-multiplatform</title><circle cx="329.5" cy="150.5" r="147.566" fill="#f3f3f3"/><circle cx="329.5" cy="150.5" r="127.841" fill="#e6e6e6"/><circle cx="329.5" cy="150.5" r="104.74" fill="#d9d9d9"/><path d="M235.4,128.04v83.723a19.878,19.878,0,0,0,9.938,17.213l72.505,41.861a19.875,19.875,0,0,0,19.877,0l72.506-41.861a19.877,19.877,0,0,0,9.937-17.213V128.04a19.874,19.874,0,0,0-9.937-17.212L337.72,68.966a19.88,19.88,0,0,0-19.877,0l-72.505,41.862A19.875,19.875,0,0,0,235.4,128.04" fill="#ed8422"/><path d="M251.132,136.526v76.636a18.2,18.2,0,0,0,9.1,15.756l66.108,37.769a18.194,18.194,0,0,0,18.194,0l66.629-37.769a18.194,18.194,0,0,0,9.1-15.756V136.526a18.192,18.192,0,0,0-9.1-15.756L344.791,82.451a18.2,18.2,0,0,0-18.194,0L260.229,120.77a18.2,18.2,0,0,0-9.1,15.756" fill="#fda84c"/><rect x="244.434" y="129.476" width="36.131" height="98.048" transform="translate(-0.235 0.346) rotate(-0.076)" fill="#e6e6e6"/><rect x="244.757" y="202.486" width="35.882" height="3.278" transform="translate(-0.272 0.35) rotate(-0.076)" fill="#b2b2b2"/><polygon points="244.5 143.544 244.495 140.5 280.5 140.456 280.485 129.5 303.5 129.471 303.632 227.5 280.5 227.5 281.5 215.791 281.504 218.5 244.5 218.544 244.496 215.5 280.5 215.451 280.456 180.5 244.5 180.548 244.496 177.5 280.5 177.453 280.501 178.294 280.488 168.5 244.5 168.544 244.495 165.5 280.5 165.456 280.488 155.5 244.5 155.544 244.495 152.5 280.5 152.5 281.5 143.119 281.5 143.5 244.5 143.544" fill="#939393"/><rect x="244.741" y="190.065" width="35.882" height="3.277" transform="translate(-0.25 0.343) rotate(-0.075)" fill="#939393"/><path d="M250.078,134.922a1.489,1.489,0,1,0,1.486-1.49,1.488,1.488,0,0,0-1.486,1.49" fill="#ed8422"/><path d="M255.707,134.914a1.488,1.488,0,1,0,1.485-1.49,1.487,1.487,0,0,0-1.485,1.49" fill="#ed8422"/><path d="M250.1,148.075a1.488,1.488,0,1,0,1.485-1.489,1.488,1.488,0,0,0-1.485,1.489" fill="#ed8422"/><path d="M255.724,148.068a1.488,1.488,0,1,0,1.486-1.489,1.488,1.488,0,0,0-1.486,1.489" fill="#ed8422"/><path d="M250.112,160.41a1.488,1.488,0,1,0,1.486-1.49,1.489,1.489,0,0,0-1.486,1.49" fill="#ed8422"/><path d="M255.74,160.4a1.488,1.488,0,1,0,1.486-1.489,1.488,1.488,0,0,0-1.486,1.489" fill="#ed8422"/><path d="M250.128,172.744a1.488,1.488,0,1,0,1.486-1.489,1.488,1.488,0,0,0-1.486,1.489" fill="#ed8422"/><path d="M255.757,172.737a1.488,1.488,0,1,0,1.485-1.49,1.488,1.488,0,0,0-1.485,1.49" fill="#ed8422"/><path d="M250.145,185.079a1.488,1.488,0,1,0,1.485-1.49,1.487,1.487,0,0,0-1.485,1.49" fill="#ed8422"/><path d="M255.773,185.071a1.488,1.488,0,1,0,1.486-1.489,1.488,1.488,0,0,0-1.486,1.489" fill="#ed8422"/><path d="M250.161,197.413a1.488,1.488,0,1,0,1.486-1.489,1.488,1.488,0,0,0-1.486,1.489" fill="#ed8422"/><path d="M255.789,197.406a1.488,1.488,0,1,0,1.486-1.49,1.489,1.489,0,0,0-1.486,1.49" fill="#ed8422"/><path d="M250.177,209.748a1.488,1.488,0,1,0,1.486-1.49,1.488,1.488,0,0,0-1.486,1.49" fill="#ed8422"/><path d="M255.805,209.74a1.489,1.489,0,1,0,1.486-1.489,1.489,1.489,0,0,0-1.486,1.489" fill="#ed8422"/><path d="M250.194,222.6a1.488,1.488,0,1,0,1.486-1.49,1.488,1.488,0,0,0-1.486,1.49" fill="#ed8422"/><path d="M255.822,222.592a1.489,1.489,0,1,0,1.486-1.489,1.488,1.488,0,0,0-1.486,1.489" fill="#ed8422"/><path d="M298.929,112.827c-10.356,8.9-12.036,25.449-3.146,34.989-7.074-1.558-10.806-8.205-10.806-8.205,1.81,22.874,21.007,19.19,21.007,19.19a23.561,23.561,0,0,0,.268-3.038l.124.088,60.543,7.583.8-48.625Z"/><path d="M404.179,233.366c-1.317-15.956-3.59-35.622-6.655-52.725-4.07-22.71-27.13-32.342-39.15-32.686s-42.088,2.987-56.054,7.438a32.9,32.9,0,0,0-22.447,26.212l-8.847,57.512,46.249,31.49a20.259,20.259,0,0,0,20.262,0Z" fill="#666"/><path d="M302.32,155.392c-11.834,3.772-20.5,13.947-22.578,27.181L270.484,243.3l24.772,12.752.168-7.357a17.769,17.769,0,0,0-2.178-9.292l-3.311-6.035a32.158,32.158,0,0,1-.4-30.188l2.438-4.738a33.016,33.016,0,0,0,3.659-15.108,27.04,27.04,0,0,1,14.946-24.185l-.84-5.705c-2.765.62-5.28,1.273-7.415,1.953" fill="#737373"/><path d="M339.785,57.589h0A35.03,35.03,0,0,0,300.447,87.7l-2.608,19.626a31.718,31.718,0,0,0,22.229,34.524l11.818,7.929a232.076,232.076,0,0,0-23.184,3.9l1.873,5.468a26.5,26.5,0,0,0,51.189-4.08l1.174-6.795c-1.679-.179-3.221-.276-4.564-.314-.905-.026-1.919-.029-3.015-.014l-4.223-9.329c8.763-5.311,19.736-13.348,21.19-24.3l-2.432-17.388a35.029,35.029,0,0,0-30.109-39.339" fill="#d8b094"/><path d="M312.416,105.7l4.181-4.964a6.2,6.2,0,0,0-3.925-10.142l-12.391-1.646-2.442,18.376a31.723,31.723,0,0,0,16.886,32.362c-1.233-3.338-5.12-17.023,9.259-27.5l-9.546-1.269a3.193,3.193,0,0,1-2.022-5.222" fill="#b48f75"/><path d="M310.1,120.253a12.851,12.851,0,0,0,21.78,2.894Z" fill="#fff"/><path d="M335.825,125.191a4.813,4.813,0,0,0-5.21-6.806Z" fill="#b48f75"/><path d="M306.7,99.022a3.044,3.044,0,0,1,1.977,1.12,2.544,2.544,0,1,0-4.209-.538,3.052,3.052,0,0,1,2.232-.582"/><path d="M342.039,104.066a3.035,3.035,0,0,1,1.853.984,2.523,2.523,0,0,0,.8-1.526,2.547,2.547,0,1,0-4.683,1,3.039,3.039,0,0,1,2.026-.453"/><path d="M328.384,143.377l-3.285-.437a31.982,31.982,0,0,1-5.031-1.091,59.324,59.324,0,0,1-2.9,12.808,33.072,33.072,0,0,0,22.529-11.622,34.953,34.953,0,0,1-11.309.342" fill="#b48f75"/><path d="M370.018,146.563c8.983-17.821,7.957-35.175,4.143-43.621,3.507-13.992,4.653-42.558-29.733-50.741-29.034-6.908-45.854,16.811-49.268,30.035-5.421,3.1-10.9,5.511-15.463,6.054,0,0,9.166,4.768,22.306.662a12.281,12.281,0,0,0-2.369,1.275,1.373,1.373,0,0,0,1.575,2.25c.282-.2,6.965-4.716,12.115,1.6a1.374,1.374,0,1,0,2.129-1.736,10.9,10.9,0,0,0-11.786-3.947c6.281-2.272,13.379-6.6,20.768-14.365h0a44.921,44.921,0,0,0,13.655,19.752,12.458,12.458,0,0,0-2.75,1.425,1.374,1.374,0,0,0,1.576,2.251,11.041,11.041,0,0,1,3.845-1.573,49.322,49.322,0,0,0,14.284,7.192c-7.8,14.662-24.017,54.647,26.185,62a86.289,86.289,0,0,1-11.213-18.514m-7.786-28.482,3.451-12.691L367.2,99.8l1.229,2.19a11.4,11.4,0,0,1,.51,1.043c.065.15.119.3.177.454.073.19.142.382.2.574s.123.4.176.606c.033.128.06.256.088.384.054.241.107.483.144.724a11.194,11.194,0,0,1-7.5,12.3"/><path d="M376.918,196.126c-.99,27.736-10.35,34.5-14.9,46.462a32.16,32.16,0,0,0-1.6,15.587l22.594-13.044a458.277,458.277,0,0,0-6.094-49" fill="#464646"/><path d="M335.79,250.988,317.869,196.32H232.661L252.652,257.3H379.04v-4.774H337.915a2.236,2.236,0,0,1-2.125-1.539" fill="#b2b2b2"/><path d="M312.32,196.5H227.085l20,61h88.265a4.184,4.184,0,0,1-3.975-2.88Z" fill="#939393"/><polygon points="289.526 223.764 280.846 223.764 283.317 231.3 291.996 231.3 289.526 223.764" fill="#fff"/><path d="M277.927,256.079a3.193,3.193,0,0,0-4.158-4.577l-8.047,4.211,3.256-4a3.217,3.217,0,0,0-4.57-4.519l-10.5,9.45a.161.161,0,0,1-.25-.194l4.323-8.348a3.333,3.333,0,0,0-5.717-3.405l-5.834,10.225-3.273-9.611a5.5,5.5,0,0,0-.63,5.275l1.583,6.121.549,2.022a3.943,3.943,0,0,0,5.247,2.636l3.353-1.317.108.132a5.6,5.6,0,0,0,8.532.227l1.409-1.733.037.133a3.81,3.81,0,0,0,5.372,2.378l1.163-.583h6.032a3.764,3.764,0,0,0,3.764-3.765V256.2Z" fill="#d8b094"/><path d="M499.034,197.881c0,.226-1.355.226-2.542.71l-1.923.757-1.244.486s-1.191.484.735.578h27.327c0-.094,1.752-.094.168-.741l-2.209-.862a17.4,17.4,0,0,0-3.732-.928Z" fill="#666"/><path d="M511.54,197.881V185.228H503.1v12.653Z" fill="#666"/><polygon points="503.104 188.991 511.54 195.784 511.54 197.881 503.104 197.881 503.104 188.991" fill="#8c8c8c"/><rect x="492.981" y="200.412" width="29.525" height="0.844"/><path d="M468.992,128.553s-3.848,0-3.848,3.876v48.924s0,3.875,3.848,3.875h76.662s3.846,0,3.846-3.875V132.429s0-3.876-3.846-3.876Z" fill="#505050"/><path d="M470.084,131.5a1.558,1.558,0,0,0-1.584,1.6v46.738a1.6,1.6,0,0,0,1.584,1.658h74.828a1.578,1.578,0,0,0,1.588-1.658V133.1a1.566,1.566,0,0,0-1.588-1.6Z" fill="#737373"/><path d="M486.292,136.525h12.163a6.78,6.78,0,0,1,6.761,6.761v3.586a6.781,6.781,0,0,1-6.761,6.761h-2.962v4.678l-4.68-4.678h-4.521a6.781,6.781,0,0,1-6.761-6.761v-3.586a6.78,6.78,0,0,1,6.761-6.761" fill="#b4a0ff"/><circle cx="483.474" cy="175.911" r="2.609" fill="#939393"/><circle cx="491.675" cy="175.911" r="2.609" fill="#939393"/><circle cx="499.876" cy="175.911" r="2.609" fill="#939393"/><circle cx="508.076" cy="175.911" r="2.609" fill="#939393"/><circle cx="516.277" cy="175.911" r="2.609" fill="#939393"/><circle cx="524.478" cy="175.911" r="2.609" fill="#939393"/><circle cx="532.679" cy="175.911" r="2.609" fill="#939393"/><path d="M527.06,144.748H514.9a6.782,6.782,0,0,0-6.761,6.761V155.1a6.781,6.781,0,0,0,6.761,6.761h2.962v4.679l4.68-4.679h4.521a6.781,6.781,0,0,0,6.762-6.761v-3.586a6.782,6.782,0,0,0-6.762-6.761" fill="#fda84c"/><rect x="188.121" y="15.801" width="72.802" height="50.402" rx="2.827" ry="2.827" fill="#b2b2b2"/><path d="M260.923,25.882V18.7A2.831,2.831,0,0,0,258.16,15.8H190.883a2.831,2.831,0,0,0-2.762,2.894v7.187Z" fill="#666"/><ellipse cx="255.985" cy="20.412" rx="1.747" ry="1.679" fill="#505050"/><ellipse cx="249.807" cy="20.412" rx="1.747" ry="1.679" fill="#505050"/><ellipse cx="243.63" cy="20.412" rx="1.747" ry="1.679" fill="#505050"/><rect x="191.709" y="18.903" width="46.814" height="3.877" fill="#b2b2b2"/><polygon points="222.547 33.72 195.292 33.72 195.292 44.173 211.72 44.173 219.933 48.28 218.291 44.173 222.547 44.173 222.547 33.72" fill="#ddd"/><polygon points="226.933 42.12 254.188 42.12 254.188 52.573 237.76 52.573 229.547 56.68 231.19 52.573 226.933 52.573 226.933 42.12" fill="#ddd"/><path d="M424.919,67.669a71.488,71.488,0,0,1-13.55.994c-6.464,0-12.306-.5-14.171-.994s-2.983-1.617-2.983-3.233V9.864c0-1.74,1.119-2.859,3.108-3.107a128.6,128.6,0,0,1,14.046-.746,106.756,106.756,0,0,1,13.55.746c2.114.373,3.108,1.367,3.108,3.232V64.436C428.027,66.177,427.033,67.171,424.919,67.669Z" fill="#505050"/><path d="M425.292,12.226H396.825v50.1h28.467Z" fill="#b2b2b2"/><path d="M425.292,36.467V12.226h-26.6Z" fill="none"/><rect x="396.875" y="12.208" width="28.417" height="7.292" fill="#ed8422"/><rect x="400.5" y="24.5" width="22" height="7" fill="#ddd"/><rect x="400.5" y="36.5" width="22" height="7" fill="#ddd"/><path d="M191.5,135.868v47.279a3.353,3.353,0,0,1-3.353,3.353H121.853a3.353,3.353,0,0,1-3.353-3.353V135.853a3.353,3.353,0,0,1,3.353-3.353h65.98A3.666,3.666,0,0,1,191.5,135.868Z" fill="#505050"/><rect x="123.5" y="136.5" width="60" height="46" fill="#939393"/><circle cx="187.035" cy="159.275" r="1.725" fill="#b2b2b2"/><polygon points="183.5 174.905 183.5 137.5 146.095 137.5 183.5 174.905" fill="#b2b2b2"/><rect x="124.083" y="136.5" width="59.417" height="7" fill="#fda84c"/><polygon points="151.5 147.5 127.5 147.5 127.5 157.5 140.786 157.5 148.914 161.429 147.288 157.5 151.5 157.5 151.5 147.5" fill="#fff"/><polygon points="156.5 156.5 180.5 156.5 180.5 166.5 167.214 166.5 159.086 170.429 160.712 166.5 156.5 166.5 156.5 156.5" fill="#fff"/></svg>